{"asset":{"version":"2.0","generator":"THREE.GLTFExporter","copyright":"TOGO LIFE Studio — original avatar, MIT","extras":{"source":"scripts/export-avatar.mjs","limitations":"Original continuous profiled skin with blended limb weights; authored procedural clips, no mocap or foot IK."}},"scenes":[{"name":"AuxScene","nodes":[23]}],"scene":0,"nodes":[{"translation":[0,0.1,0],"name":"head"},{"translation":[0,0.17,0],"name":"neck","children":[0]},{"translation":[0,-0.07,0],"name":"leftHand"},{"translation":[0.035,-0.235,0],"name":"leftWrist","children":[2]},{"rotation":[-0.059964006479444595,0,0,0.9982005399352042],"translation":[0.09,-0.265,0],"name":"leftElbow","children":[3]},{"rotation":[0,0,0.03998933418663416,0.9992001066609779],"translation":[0.22,0.025,0],"name":"leftShoulder","children":[4]},{"translation":[0,-0.07,0],"name":"rightHand"},{"translation":[-0.035,-0.235,0],"name":"rightWrist","children":[6]},{"rotation":[-0.059964006479444595,0,0,0.9982005399352042],"translation":[-0.09,-0.265,0],"name":"rightElbow","children":[7]},{"rotation":[0,0,-0.03998933418663416,0.9992001066609779],"translation":[-0.22,0.025,0],"name":"rightShoulder","children":[8]},{"translation":[0,0.22,0],"scale":[1,1.0002563154414845,1.0002563154414845],"name":"chest","children":[1,5,9]},{"translation":[0,0.18,0],"name":"spine","children":[10]},{"translation":[0,-0.035,0.045],"name":"leftFoot"},{"translation":[0,-0.4,0],"name":"leftAnkle","children":[12]},{"translation":[0,-0.4,0],"name":"leftKnee","children":[13]},{"translation":[0.105,-0.03,0],"name":"leftHip","children":[14]},{"translation":[0,-0.035,0.045],"name":"rightFoot"},{"translation":[0,-0.4,0],"name":"rightAnkle","children":[16]},{"translation":[0,-0.4,0],"name":"rightKnee","children":[17]},{"translation":[-0.105,-0.03,0],"name":"rightHip","children":[18]},{"translation":[0,0.91,0],"name":"pelvis","children":[11,15,19]},{"name":"root","children":[20]},{"name":"OriginalTailoredAdultSkinnedBody","mesh":0,"skin":0},{"name":"TogoLifeAvatar","extras":{"animationState":"Idle"},"children":[21,22]}],"bufferViews":[{"buffer":0,"byteOffset":0,"byteLength":49248,"target":34962,"byteStride":12},{"buffer":0,"byteOffset":49248,"byteLength":49248,"target":34962,"byteStride":12},{"buffer":0,"byteOffset":98496,"byteLength":32832,"target":34962,"byteStride":8},{"buffer":0,"byteOffset":131328,"byteLength":65664,"target":34962,"byteStride":16},{"buffer":0,"byteOffset":196992,"byteLength":49248,"target":34962,"byteStride":12},{"buffer":0,"byteOffset":246240,"byteLength":40272,"target":34963},{"buffer":0,"byteOffset":286512,"byteLength":1408},{"buffer":0,"byteOffset":287920,"byteLength":132},{"buffer":0,"byteOffset":288052,"byteLength":528},{"buffer":0,"byteOffset":288580,"byteLength":132},{"buffer":0,"byteOffset":288712,"byteLength":528},{"buffer":0,"byteOffset":289240,"byteLength":132},{"buffer":0,"byteOffset":289372,"byteLength":528},{"buffer":0,"byteOffset":289900,"byteLength":132},{"buffer":0,"byteOffset":290032,"byteLength":528},{"buffer":0,"byteOffset":290560,"byteLength":132},{"buffer":0,"byteOffset":290692,"byteLength":528},{"buffer":0,"byteOffset":291220,"byteLength":132},{"buffer":0,"byteOffset":291352,"byteLength":528},{"buffer":0,"byteOffset":291880,"byteLength":132},{"buffer":0,"byteOffset":292012,"byteLength":528},{"buffer":0,"byteOffset":292540,"byteLength":132},{"buffer":0,"byteOffset":292672,"byteLength":528},{"buffer":0,"byteOffset":293200,"byteLength":132},{"buffer":0,"byteOffset":293332,"byteLength":528},{"buffer":0,"byteOffset":293860,"byteLength":132},{"buffer":0,"byteOffset":293992,"byteLength":528},{"buffer":0,"byteOffset":294520,"byteLength":132},{"buffer":0,"byteOffset":294652,"byteLength":528},{"buffer":0,"byteOffset":295180,"byteLength":132},{"buffer":0,"byteOffset":295312,"byteLength":528},{"buffer":0,"byteOffset":295840,"byteLength":132},{"buffer":0,"byteOffset":295972,"byteLength":528},{"buffer":0,"byteOffset":296500,"byteLength":132},{"buffer":0,"byteOffset":296632,"byteLength":528},{"buffer":0,"byteOffset":297160,"byteLength":132},{"buffer":0,"byteOffset":297292,"byteLength":528},{"buffer":0,"byteOffset":297820,"byteLength":132},{"buffer":0,"byteOffset":297952,"byteLength":528},{"buffer":0,"byteOffset":298480,"byteLength":132},{"buffer":0,"byteOffset":298612,"byteLength":528},{"buffer":0,"byteOffset":299140,"byteLength":132},{"buffer":0,"byteOffset":299272,"byteLength":528},{"buffer":0,"byteOffset":299800,"byteLength":132},{"buffer":0,"byteOffset":299932,"byteLength":528},{"buffer":0,"byteOffset":300460,"byteLength":132},{"buffer":0,"byteOffset":300592,"byteLength":528},{"buffer":0,"byteOffset":301120,"byteLength":132},{"buffer":0,"byteOffset":301252,"byteLength":528},{"buffer":0,"byteOffset":301780,"byteLength":132},{"buffer":0,"byteOffset":301912,"byteLength":528},{"buffer":0,"byteOffset":302440,"byteLength":132},{"buffer":0,"byteOffset":302572,"byteLength":396},{"buffer":0,"byteOffset":302968,"byteLength":132},{"buffer":0,"byteOffset":303100,"byteLength":528},{"buffer":0,"byteOffset":303628,"byteLength":132},{"buffer":0,"byteOffset":303760,"byteLength":528},{"buffer":0,"byteOffset":304288,"byteLength":132},{"buffer":0,"byteOffset":304420,"byteLength":528},{"buffer":0,"byteOffset":304948,"byteLength":132},{"buffer":0,"byteOffset":305080,"byteLength":528},{"buffer":0,"byteOffset":305608,"byteLength":132},{"buffer":0,"byteOffset":305740,"byteLength":528},{"buffer":0,"byteOffset":306268,"byteLength":132},{"buffer":0,"byteOffset":306400,"byteLength":528},{"buffer":0,"byteOffset":306928,"byteLength":132},{"buffer":0,"byteOffset":307060,"byteLength":528},{"buffer":0,"byteOffset":307588,"byteLength":132},{"buffer":0,"byteOffset":307720,"byteLength":528},{"buffer":0,"byteOffset":308248,"byteLength":132},{"buffer":0,"byteOffset":308380,"byteLength":528},{"buffer":0,"byteOffset":308908,"byteLength":132},{"buffer":0,"byteOffset":309040,"byteLength":528},{"buffer":0,"byteOffset":309568,"byteLength":132},{"buffer":0,"byteOffset":309700,"byteLength":528},{"buffer":0,"byteOffset":310228,"byteLength":132},{"buffer":0,"byteOffset":310360,"byteLength":528},{"buffer":0,"byteOffset":310888,"byteLength":132},{"buffer":0,"byteOffset":311020,"byteLength":528},{"buffer":0,"byteOffset":311548,"byteLength":132},{"buffer":0,"byteOffset":311680,"byteLength":528},{"buffer":0,"byteOffset":312208,"byteLength":132},{"buffer":0,"byteOffset":312340,"byteLength":528},{"buffer":0,"byteOffset":312868,"byteLength":132},{"buffer":0,"byteOffset":313000,"byteLength":528},{"buffer":0,"byteOffset":313528,"byteLength":132},{"buffer":0,"byteOffset":313660,"byteLength":528},{"buffer":0,"byteOffset":314188,"byteLength":132},{"buffer":0,"byteOffset":314320,"byteLength":528},{"buffer":0,"byteOffset":314848,"byteLength":132},{"buffer":0,"byteOffset":314980,"byteLength":528},{"buffer":0,"byteOffset":315508,"byteLength":132},{"buffer":0,"byteOffset":315640,"byteLength":528},{"buffer":0,"byteOffset":316168,"byteLength":132},{"buffer":0,"byteOffset":316300,"byteLength":528},{"buffer":0,"byteOffset":316828,"byteLength":132},{"buffer":0,"byteOffset":316960,"byteLength":528},{"buffer":0,"byteOffset":317488,"byteLength":132},{"buffer":0,"byteOffset":317620,"byteLength":396},{"buffer":0,"byteOffset":318016,"byteLength":132},{"buffer":0,"byteOffset":318148,"byteLength":528},{"buffer":0,"byteOffset":318676,"byteLength":132},{"buffer":0,"byteOffset":318808,"byteLength":528},{"buffer":0,"byteOffset":319336,"byteLength":132},{"buffer":0,"byteOffset":319468,"byteLength":528},{"buffer":0,"byteOffset":319996,"byteLength":132},{"buffer":0,"byteOffset":320128,"byteLength":528},{"buffer":0,"byteOffset":320656,"byteLength":132},{"buffer":0,"byteOffset":320788,"byteLength":528},{"buffer":0,"byteOffset":321316,"byteLength":132},{"buffer":0,"byteOffset":321448,"byteLength":528},{"buffer":0,"byteOffset":321976,"byteLength":132},{"buffer":0,"byteOffset":322108,"byteLength":528},{"buffer":0,"byteOffset":322636,"byteLength":132},{"buffer":0,"byteOffset":322768,"byteLength":528},{"buffer":0,"byteOffset":323296,"byteLength":132},{"buffer":0,"byteOffset":323428,"byteLength":528},{"buffer":0,"byteOffset":323956,"byteLength":132},{"buffer":0,"byteOffset":324088,"byteLength":528},{"buffer":0,"byteOffset":324616,"byteLength":132},{"buffer":0,"byteOffset":324748,"byteLength":528},{"buffer":0,"byteOffset":325276,"byteLength":132},{"buffer":0,"byteOffset":325408,"byteLength":528},{"buffer":0,"byteOffset":325936,"byteLength":132},{"buffer":0,"byteOffset":326068,"byteLength":528},{"buffer":0,"byteOffset":326596,"byteLength":132},{"buffer":0,"byteOffset":326728,"byteLength":528},{"buffer":0,"byteOffset":327256,"byteLength":132},{"buffer":0,"byteOffset":327388,"byteLength":528},{"buffer":0,"byteOffset":327916,"byteLength":132},{"buffer":0,"byteOffset":328048,"byteLength":528},{"buffer":0,"byteOffset":328576,"byteLength":132},{"buffer":0,"byteOffset":328708,"byteLength":528},{"buffer":0,"byteOffset":329236,"byteLength":132},{"buffer":0,"byteOffset":329368,"byteLength":528},{"buffer":0,"byteOffset":329896,"byteLength":132},{"buffer":0,"byteOffset":330028,"byteLength":528},{"buffer":0,"byteOffset":330556,"byteLength":132},{"buffer":0,"byteOffset":330688,"byteLength":528},{"buffer":0,"byteOffset":331216,"byteLength":132},{"buffer":0,"byteOffset":331348,"byteLength":528},{"buffer":0,"byteOffset":331876,"byteLength":132},{"buffer":0,"byteOffset":332008,"byteLength":528},{"buffer":0,"byteOffset":332536,"byteLength":132},{"buffer":0,"byteOffset":332668,"byteLength":396}],"buffers":[{"byteLength":333064,"uri":"data:application/octet-stream;base64,"}],"accessors":[{"bufferView":0,"componentType":5126,"count":4104,"max":[0.3779999911785126,1.7680000066757202,0.1679999977350235],"min":[-0.3779999911785126,0.017000000923871994,-0.11999999731779099],"type":"VEC3"},{"bufferView":1,"componentType":5126,"count":4104,"max":[0.8069522380828857,0.7379103899002075,0.6307571530342102],"min":[0.008568125776946545,0.006048833020031452,0.005605391692370176],"type":"VEC3"},{"bufferView":2,"componentType":5123,"count":4104,"max":[21,19,0,0],"min":[1,0,0,0],"type":"VEC4"},{"bufferView":3,"componentType":5126,"count":4104,"max":[1,1,0,0],"min":[0,0,0,0],"type":"VEC4"},{"bufferView":4,"componentType":5126,"count":4104,"max":[1,1,1],"min":[-1,-1,-1],"type":"VEC3"},{"bufferView":5,"componentType":5123,"count":20136,"max":[4103],"min":[0],"type":"SCALAR"},{"bufferView":6,"componentType":5126,"count":22,"max":[1,0,0,0,0,1,0,0,0,0,1,0,0.3449999988079071,0,0,1],"min":[1,0,0,0,0,1,0,0,0,0,1,0,-0.3449999988079071,-1.5800000429153442,-0.04500000178813934,1],"type":"MAT4"},{"bufferView":7,"componentType":5126,"count":33,"max":[2],"min":[0],"type":"SCALAR"},{"bufferView":8,"componentType":5126,"count":33,"max":[0,0,0,1],"min":[0,0,0,1],"type":"VEC4"},{"bufferView":9,"componentType":5126,"count":33,"max":[2],"min":[0],"type":"SCALAR"},{"bufferView":10,"componentType":5126,"count":33,"max":[0,0,0,1],"min":[0,0,0,1],"type":"VEC4"},{"bufferView":11,"componentType":5126,"count":33,"max":[2],"min":[0],"type":"SCALAR"},{"bufferView":12,"componentType":5126,"count":33,"max":[0,0,0,1],"min":[0,0,0,1],"type":"VEC4"},{"bufferView":13,"componentType":5126,"count":33,"max":[2],"min":[0],"type":"SCALAR"},{"bufferView":14,"componentType":5126,"count":33,"max":[0.003999989479780197,0,0,1],"min":[-0.003999989479780197,0,0,0.9999920129776001],"type":"VEC4"},{"bufferView":15,"componentType":5126,"count":33,"max":[2],"min":[0],"type":"SCALAR"},{"bufferView":16,"componentType":5126,"count":33,"max":[0,0,0,1],"min":[0,0,0,1],"type":"VEC4"},{"bufferView":17,"componentType":5126,"count":33,"max":[2],"min":[0],"type":"SCALAR"},{"bufferView":18,"componentType":5126,"count":33,"max":[0,0,0,1],"min":[0,0,0,1],"type":"VEC4"},{"bufferView":19,"componentType":5126,"count":33,"max":[2],"min":[0],"type":"SCALAR"},{"bufferView":20,"componentType":5126,"count":33,"max":[0,0,0,1],"min":[0,0,0,1],"type":"VEC4"},{"bufferView":21,"componentType":5126,"count":33,"max":[2],"min":[0],"type":"SCALAR"},{"bufferView":22,"componentType":5126,"count":33,"max":[0,0,0,1],"min":[0,0,0,1],"type":"VEC4"},{"bufferView":23,"componentType":5126,"count":33,"max":[2],"min":[0],"type":"SCALAR"},{"bufferView":24,"componentType":5126,"count":33,"max":[0,0,0,1],"min":[0,0,0,1],"type":"VEC4"},{"bufferView":25,"componentType":5126,"count":33,"max":[2],"min":[0],"type":"SCALAR"},{"bufferView":26,"componentType":5126,"count":33,"max":[0,0,0,1],"min":[0,0,0,1],"type":"VEC4"},{"bufferView":27,"componentType":5126,"count":33,"max":[2],"min":[0],"type":"SCALAR"},{"bufferView":28,"componentType":5126,"count":33,"max":[0,0,0.03998933359980583,0.9992001056671143],"min":[0,0,0.03998933359980583,0.9992001056671143],"type":"VEC4"},{"bufferView":29,"componentType":5126,"count":33,"max":[2],"min":[0],"type":"SCALAR"},{"bufferView":30,"componentType":5126,"count":33,"max":[-0.059964004904031754,0,0,0.998200535774231],"min":[-0.059964004904031754,0,0,0.998200535774231],"type":"VEC4"},{"bufferView":31,"componentType":5126,"count":33,"max":[2],"min":[0],"type":"SCALAR"},{"bufferView":32,"componentType":5126,"count":33,"max":[0,0,0,1],"min":[0,0,0,1],"type":"VEC4"},{"bufferView":33,"componentType":5126,"count":33,"max":[2],"min":[0],"type":"SCALAR"},{"bufferView":34,"componentType":5126,"count":33,"max":[0,0,0,1],"min":[0,0,0,1],"type":"VEC4"},{"bufferView":35,"componentType":5126,"count":33,"max":[2],"min":[0],"type":"SCALAR"},{"bufferView":36,"componentType":5126,"count":33,"max":[0,0,0,1],"min":[0,0,0,1],"type":"VEC4"},{"bufferView":37,"componentType":5126,"count":33,"max":[2],"min":[0],"type":"SCALAR"},{"bufferView":38,"componentType":5126,"count":33,"max":[0,0,0,1],"min":[0,0,0,1],"type":"VEC4"},{"bufferView":39,"componentType":5126,"count":33,"max":[2],"min":[0],"type":"SCALAR"},{"bufferView":40,"componentType":5126,"count":33,"max":[0,0,0,1],"min":[0,0,0,1],"type":"VEC4"},{"bufferView":41,"componentType":5126,"count":33,"max":[2],"min":[0],"type":"SCALAR"},{"bufferView":42,"componentType":5126,"count":33,"max":[0,0,0,1],"min":[0,0,0,1],"type":"VEC4"},{"bufferView":43,"componentType":5126,"count":33,"max":[2],"min":[0],"type":"SCALAR"},{"bufferView":44,"componentType":5126,"count":33,"max":[0,0,-0.03998933359980583,0.9992001056671143],"min":[0,0,-0.03998933359980583,0.9992001056671143],"type":"VEC4"},{"bufferView":45,"componentType":5126,"count":33,"max":[2],"min":[0],"type":"SCALAR"},{"bufferView":46,"componentType":5126,"count":33,"max":[-0.059964004904031754,0,0,0.998200535774231],"min":[-0.059964004904031754,0,0,0.998200535774231],"type":"VEC4"},{"bufferView":47,"componentType":5126,"count":33,"max":[2],"min":[0],"type":"SCALAR"},{"bufferView":48,"componentType":5126,"count":33,"max":[0,0,0,1],"min":[0,0,0,1],"type":"VEC4"},{"bufferView":49,"componentType":5126,"count":33,"max":[2],"min":[0],"type":"SCALAR"},{"bufferView":50,"componentType":5126,"count":33,"max":[0,0,0,1],"min":[0,0,0,1],"type":"VEC4"},{"bufferView":51,"componentType":5126,"count":33,"max":[2],"min":[0],"type":"SCALAR"},{"bufferView":52,"componentType":5126,"count":33,"max":[0,0.9100000262260437,0],"min":[0,0.9100000262260437,0],"type":"VEC3"},{"bufferView":53,"componentType":5126,"count":33,"max":[0.3333333432674408],"min":[0],"type":"SCALAR"},{"bufferView":54,"componentType":5126,"count":33,"max":[0,0,0,1],"min":[0,0,0,1],"type":"VEC4"},{"bufferView":55,"componentType":5126,"count":33,"max":[0.3333333432674408],"min":[0],"type":"SCALAR"},{"bufferView":56,"componentType":5126,"count":33,"max":[0,0,0,1],"min":[0,0,0,1],"type":"VEC4"},{"bufferView":57,"componentType":5126,"count":33,"max":[0.3333333432674408],"min":[0],"type":"SCALAR"},{"bufferView":58,"componentType":5126,"count":33,"max":[0.0024999973829835653,0,0,0.9999969005584717],"min":[0.0024999973829835653,0,0,0.9999969005584717],"type":"VEC4"},{"bufferView":59,"componentType":5126,"count":33,"max":[0.3333333432674408],"min":[0],"type":"SCALAR"},{"bufferView":60,"componentType":5126,"count":33,"max":[0,0.01749878190457821,0,0.9999998807907104],"min":[0,-0.017483564093708992,0,0.999846875667572],"type":"VEC4"},{"bufferView":61,"componentType":5126,"count":33,"max":[0.3333333432674408],"min":[0],"type":"SCALAR"},{"bufferView":62,"componentType":5126,"count":33,"max":[0,0,0,1],"min":[0,0,0,1],"type":"VEC4"},{"bufferView":63,"componentType":5126,"count":33,"max":[0.3333333432674408],"min":[0],"type":"SCALAR"},{"bufferView":64,"componentType":5126,"count":33,"max":[0,0.009990950115025043,0,0.9999999403953552],"min":[0,-0.009999647736549377,0,0.9999499917030334],"type":"VEC4"},{"bufferView":65,"componentType":5126,"count":33,"max":[0.3333333432674408],"min":[0],"type":"SCALAR"},{"bufferView":66,"componentType":5126,"count":33,"max":[0.1967051923274994,0,0,0.9999851584434509],"min":[-0.1965363472700119,0,0,0.9804626703262329],"type":"VEC4"},{"bufferView":67,"componentType":5126,"count":33,"max":[0.3333333432674408],"min":[0],"type":"SCALAR"},{"bufferView":68,"componentType":5126,"count":33,"max":[0,0,0,1],"min":[-0.3107376992702484,0,0,0.950495719909668],"type":"VEC4"},{"bufferView":69,"componentType":5126,"count":33,"max":[0.3333333432674408],"min":[0],"type":"SCALAR"},{"bufferView":70,"componentType":5126,"count":33,"max":[0.055362433195114136,0,0,0.9999988079071045],"min":[-0.05541057512164116,0,0,0.9984636306762695],"type":"VEC4"},{"bufferView":71,"componentType":5126,"count":33,"max":[0.3333333432674408],"min":[0],"type":"SCALAR"},{"bufferView":72,"componentType":5126,"count":33,"max":[0,0,0,1],"min":[0,0,0,1],"type":"VEC4"},{"bufferView":73,"componentType":5126,"count":33,"max":[0.3333333432674408],"min":[0],"type":"SCALAR"},{"bufferView":74,"componentType":5126,"count":33,"max":[0.15747343003749847,0.006307738833129406,0.03998895362019539,0.999190628528595],"min":[-0.15760935842990875,-0.00630229851230979,0.03948872163891792,0.9866915345191956],"type":"VEC4"},{"bufferView":75,"componentType":5126,"count":33,"max":[0.3333333432674408],"min":[0],"type":"SCALAR"},{"bufferView":76,"componentType":5126,"count":33,"max":[-0.03249511495232582,0,0,0.99947190284729],"min":[-0.12215417623519897,0,0,0.9925111532211304],"type":"VEC4"},{"bufferView":77,"componentType":5126,"count":33,"max":[0.3333333432674408],"min":[0],"type":"SCALAR"},{"bufferView":78,"componentType":5126,"count":33,"max":[0,0,0,1],"min":[0,0,0,1],"type":"VEC4"},{"bufferView":79,"componentType":5126,"count":33,"max":[0.3333333432674408],"min":[0],"type":"SCALAR"},{"bufferView":80,"componentType":5126,"count":33,"max":[0,0,0,1],"min":[0,0,0,1],"type":"VEC4"},{"bufferView":81,"componentType":5126,"count":33,"max":[0.3333333432674408],"min":[0],"type":"SCALAR"},{"bufferView":82,"componentType":5126,"count":33,"max":[0.1965363472700119,0,0,0.9999851584434509],"min":[-0.1967051923274994,0,0,0.9804626703262329],"type":"VEC4"},{"bufferView":83,"componentType":5126,"count":33,"max":[0.3333333432674408],"min":[0],"type":"SCALAR"},{"bufferView":84,"componentType":5126,"count":33,"max":[0,0,0,1],"min":[-0.3109991252422333,0,0,0.9504101872444153],"type":"VEC4"},{"bufferView":85,"componentType":5126,"count":33,"max":[0.3333333432674408],"min":[0],"type":"SCALAR"},{"bufferView":86,"componentType":5126,"count":33,"max":[0.05541057512164116,0,0,0.9999988079071045],"min":[-0.055362433195114136,0,0,0.9984636306762695],"type":"VEC4"},{"bufferView":87,"componentType":5126,"count":33,"max":[0.3333333432674408],"min":[0],"type":"SCALAR"},{"bufferView":88,"componentType":5126,"count":33,"max":[0,0,0,1],"min":[0,0,0,1],"type":"VEC4"},{"bufferView":89,"componentType":5126,"count":33,"max":[0.3333333432674408],"min":[0],"type":"SCALAR"},{"bufferView":90,"componentType":5126,"count":33,"max":[0.15760935842990875,0.006307738833129406,-0.03948872163891792,0.999190628528595],"min":[-0.15747343003749847,-0.00630229851230979,-0.03998895362019539,0.9866915345191956],"type":"VEC4"},{"bufferView":91,"componentType":5126,"count":33,"max":[0.3333333432674408],"min":[0],"type":"SCALAR"},{"bufferView":92,"componentType":5126,"count":33,"max":[-0.03253423050045967,0,0,0.9994706511497498],"min":[-0.12219302356243134,0,0,0.9925063848495483],"type":"VEC4"},{"bufferView":93,"componentType":5126,"count":33,"max":[0.3333333432674408],"min":[0],"type":"SCALAR"},{"bufferView":94,"componentType":5126,"count":33,"max":[0,0,0,1],"min":[0,0,0,1],"type":"VEC4"},{"bufferView":95,"componentType":5126,"count":33,"max":[0.3333333432674408],"min":[0],"type":"SCALAR"},{"bufferView":96,"componentType":5126,"count":33,"max":[0,0,0,1],"min":[0,0,0,1],"type":"VEC4"},{"bufferView":97,"componentType":5126,"count":33,"max":[0.3333333432674408],"min":[0],"type":"SCALAR"},{"bufferView":98,"componentType":5126,"count":33,"max":[0,0.9279996752738953,0],"min":[0,0.9104956984519958,0],"type":"VEC3"},{"bufferView":99,"componentType":5126,"count":33,"max":[0.30000001192092896],"min":[0],"type":"SCALAR"},{"bufferView":100,"componentType":5126,"count":33,"max":[0,0,0,1],"min":[0,0,0,1],"type":"VEC4"},{"bufferView":101,"componentType":5126,"count":33,"max":[0.30000001192092896],"min":[0],"type":"SCALAR"},{"bufferView":102,"componentType":5126,"count":33,"max":[0,0,0,1],"min":[0,0,0,1],"type":"VEC4"},{"bufferView":103,"componentType":5126,"count":33,"max":[0.30000001192092896],"min":[0],"type":"SCALAR"},{"bufferView":104,"componentType":5126,"count":33,"max":[0.04997916892170906,0,0,0.9987502694129944],"min":[0.04997916892170906,0,0,0.9987502694129944],"type":"VEC4"},{"bufferView":105,"componentType":5126,"count":33,"max":[0.30000001192092896],"min":[0],"type":"SCALAR"},{"bufferView":106,"componentType":5126,"count":33,"max":[0,0.017484163865447044,0,0.9999997615814209],"min":[0,-0.017484163865447044,0,0.9998471140861511],"type":"VEC4"},{"bufferView":107,"componentType":5126,"count":33,"max":[0.30000001192092896],"min":[0],"type":"SCALAR"},{"bufferView":108,"componentType":5126,"count":33,"max":[0,0,0,1],"min":[0,0,0,1],"type":"VEC4"},{"bufferView":109,"componentType":5126,"count":33,"max":[0.30000001192092896],"min":[0],"type":"SCALAR"},{"bufferView":110,"componentType":5126,"count":33,"max":[0,0.009991293773055077,0,0.9999999403953552],"min":[0,-0.009991293773055077,0,0.999950110912323],"type":"VEC4"},{"bufferView":111,"componentType":5126,"count":33,"max":[0.30000001192092896],"min":[0],"type":"SCALAR"},{"bufferView":112,"componentType":5126,"count":33,"max":[0.342617005109787,0,0,0.999895453453064],"min":[-0.342617005109787,0,0,0.9394751787185669],"type":"VEC4"},{"bufferView":113,"componentType":5126,"count":33,"max":[0.30000001192092896],"min":[0],"type":"SCALAR"},{"bufferView":114,"componentType":5126,"count":33,"max":[0,0,0,1],"min":[-0.5846643447875977,0,0,0.8112753033638],"type":"VEC4"},{"bufferView":115,"componentType":5126,"count":33,"max":[0.30000001192092896],"min":[0],"type":"SCALAR"},{"bufferView":116,"componentType":5126,"count":33,"max":[0.0977599173784256,0,0,0.999991774559021],"min":[-0.0977599173784256,0,0,0.9952100515365601],"type":"VEC4"},{"bufferView":117,"componentType":5126,"count":33,"max":[0.30000001192092896],"min":[0],"type":"SCALAR"},{"bufferView":118,"componentType":5126,"count":33,"max":[0,0,0,1],"min":[0,0,0,1],"type":"VEC4"},{"bufferView":119,"componentType":5126,"count":33,"max":[0.30000001192092896],"min":[0],"type":"SCALAR"},{"bufferView":120,"componentType":5126,"count":33,"max":[0.27590495347976685,0.011042088270187378,0.039986658841371536,0.9991332292556763],"min":[-0.27590495347976685,-0.011042088270187378,0.03843460977077484,0.9603527188301086],"type":"VEC4"},{"bufferView":121,"componentType":5126,"count":33,"max":[0.30000001192092896],"min":[0],"type":"SCALAR"},{"bufferView":122,"componentType":5126,"count":33,"max":[-0.3569851815700531,0,0,0.9341100454330444],"min":[-0.43942779302597046,0,0,0.8982779383659363],"type":"VEC4"},{"bufferView":123,"componentType":5126,"count":33,"max":[0.30000001192092896],"min":[0],"type":"SCALAR"},{"bufferView":124,"componentType":5126,"count":33,"max":[0,0,0,1],"min":[0,0,0,1],"type":"VEC4"},{"bufferView":125,"componentType":5126,"count":33,"max":[0.30000001192092896],"min":[0],"type":"SCALAR"},{"bufferView":126,"componentType":5126,"count":33,"max":[0,0,0,1],"min":[0,0,0,1],"type":"VEC4"},{"bufferView":127,"componentType":5126,"count":33,"max":[0.30000001192092896],"min":[0],"type":"SCALAR"},{"bufferView":128,"componentType":5126,"count":33,"max":[0.342617005109787,0,0,0.999895453453064],"min":[-0.342617005109787,0,0,0.9394751787185669],"type":"VEC4"},{"bufferView":129,"componentType":5126,"count":33,"max":[0.30000001192092896],"min":[0],"type":"SCALAR"},{"bufferView":130,"componentType":5126,"count":33,"max":[0,0,0,1],"min":[-0.5846643447875977,0,0,0.8112753033638],"type":"VEC4"},{"bufferView":131,"componentType":5126,"count":33,"max":[0.30000001192092896],"min":[0],"type":"SCALAR"},{"bufferView":132,"componentType":5126,"count":33,"max":[0.0977599173784256,0,0,0.999991774559021],"min":[-0.0977599173784256,0,0,0.9952100515365601],"type":"VEC4"},{"bufferView":133,"componentType":5126,"count":33,"max":[0.30000001192092896],"min":[0],"type":"SCALAR"},{"bufferView":134,"componentType":5126,"count":33,"max":[0,0,0,1],"min":[0,0,0,1],"type":"VEC4"},{"bufferView":135,"componentType":5126,"count":33,"max":[0.30000001192092896],"min":[0],"type":"SCALAR"},{"bufferView":136,"componentType":5126,"count":33,"max":[0.27590495347976685,0.011042088270187378,-0.03843460977077484,0.9991332292556763],"min":[-0.27590495347976685,-0.011042088270187378,-0.039986658841371536,0.9603527188301086],"type":"VEC4"},{"bufferView":137,"componentType":5126,"count":33,"max":[0.30000001192092896],"min":[0],"type":"SCALAR"},{"bufferView":138,"componentType":5126,"count":33,"max":[-0.3569851815700531,0,0,0.9341100454330444],"min":[-0.43942779302597046,0,0,0.8982779383659363],"type":"VEC4"},{"bufferView":139,"componentType":5126,"count":33,"max":[0.30000001192092896],"min":[0],"type":"SCALAR"},{"bufferView":140,"componentType":5126,"count":33,"max":[0,0,0,1],"min":[0,0,0,1],"type":"VEC4"},{"bufferView":141,"componentType":5126,"count":33,"max":[0.30000001192092896],"min":[0],"type":"SCALAR"},{"bufferView":142,"componentType":5126,"count":33,"max":[0,0,0,1],"min":[0,0,0,1],"type":"VEC4"},{"bufferView":143,"componentType":5126,"count":33,"max":[0.30000001192092896],"min":[0],"type":"SCALAR"},{"bufferView":144,"componentType":5126,"count":33,"max":[0,0.9279846549034119,0],"min":[0,0.910743772983551,0],"type":"VEC3"}],"materials":[{"pbrMetallicRoughness":{"metallicFactor":0,"roughnessFactor":0.78}}],"meshes":[{"primitives":[{"mode":4,"attributes":{"POSITION":0,"COLOR_0":1,"JOINTS_0":2,"WEIGHTS_0":3,"NORMAL":4},"indices":5,"material":0}]}],"skins":[{"inverseBindMatrices":6,"joints":[21,20,11,10,1,0,15,14,13,12,5,4,3,2,19,18,17,16,9,8,7,6],"skeleton":21}],"animations":[{"name":"Idle","samplers":[{"input":7,"output":8,"interpolation":"LINEAR"},{"input":9,"output":10,"interpolation":"LINEAR"},{"input":11,"output":12,"interpolation":"LINEAR"},{"input":13,"output":14,"interpolation":"LINEAR"},{"input":15,"output":16,"interpolation":"LINEAR"},{"input":17,"output":18,"interpolation":"LINEAR"},{"input":19,"output":20,"interpolation":"LINEAR"},{"input":21,"output":22,"interpolation":"LINEAR"},{"input":23,"output":24,"interpolation":"LINEAR"},{"input":25,"output":26,"interpolation":"LINEAR"},{"input":27,"output":28,"interpolation":"LINEAR"},{"input":29,"output":30,"interpolation":"LINEAR"},{"input":31,"output":32,"interpolation":"LINEAR"},{"input":33,"output":34,"interpolation":"LINEAR"},{"input":35,"output":36,"interpolation":"LINEAR"},{"input":37,"output":38,"interpolation":"LINEAR"},{"input":39,"output":40,"interpolation":"LINEAR"},{"input":41,"output":42,"interpolation":"LINEAR"},{"input":43,"output":44,"interpolation":"LINEAR"},{"input":45,"output":46,"interpolation":"LINEAR"},{"input":47,"output":48,"interpolation":"LINEAR"},{"input":49,"output":50,"interpolation":"LINEAR"},{"input":51,"output":52,"interpolation":"LINEAR"}],"channels":[{"sampler":0,"target":{"node":21,"path":"rotation"}},{"sampler":1,"target":{"node":20,"path":"rotation"}},{"sampler":2,"target":{"node":11,"path":"rotation"}},{"sampler":3,"target":{"node":10,"path":"rotation"}},{"sampler":4,"target":{"node":1,"path":"rotation"}},{"sampler":5,"target":{"node":0,"path":"rotation"}},{"sampler":6,"target":{"node":15,"path":"rotation"}},{"sampler":7,"target":{"node":14,"path":"rotation"}},{"sampler":8,"target":{"node":13,"path":"rotation"}},{"sampler":9,"target":{"node":12,"path":"rotation"}},{"sampler":10,"target":{"node":5,"path":"rotation"}},{"sampler":11,"target":{"node":4,"path":"rotation"}},{"sampler":12,"target":{"node":3,"path":"rotation"}},{"sampler":13,"target":{"node":2,"path":"rotation"}},{"sampler":14,"target":{"node":19,"path":"rotation"}},{"sampler":15,"target":{"node":18,"path":"rotation"}},{"sampler":16,"target":{"node":17,"path":"rotation"}},{"sampler":17,"target":{"node":16,"path":"rotation"}},{"sampler":18,"target":{"node":9,"path":"rotation"}},{"sampler":19,"target":{"node":8,"path":"rotation"}},{"sampler":20,"target":{"node":7,"path":"rotation"}},{"sampler":21,"target":{"node":6,"path":"rotation"}},{"sampler":22,"target":{"node":20,"path":"translation"}}]},{"name":"Walk","samplers":[{"input":53,"output":54,"interpolation":"LINEAR"},{"input":55,"output":56,"interpolation":"LINEAR"},{"input":57,"output":58,"interpolation":"LINEAR"},{"input":59,"output":60,"interpolation":"LINEAR"},{"input":61,"output":62,"interpolation":"LINEAR"},{"input":63,"output":64,"interpolation":"LINEAR"},{"input":65,"output":66,"interpolation":"LINEAR"},{"input":67,"output":68,"interpolation":"LINEAR"},{"input":69,"output":70,"interpolation":"LINEAR"},{"input":71,"output":72,"interpolation":"LINEAR"},{"input":73,"output":74,"interpolation":"LINEAR"},{"input":75,"output":76,"interpolation":"LINEAR"},{"input":77,"output":78,"interpolation":"LINEAR"},{"input":79,"output":80,"interpolation":"LINEAR"},{"input":81,"output":82,"interpolation":"LINEAR"},{"input":83,"output":84,"interpolation":"LINEAR"},{"input":85,"output":86,"interpolation":"LINEAR"},{"input":87,"output":88,"interpolation":"LINEAR"},{"input":89,"output":90,"interpolation":"LINEAR"},{"input":91,"output":92,"interpolation":"LINEAR"},{"input":93,"output":94,"interpolation":"LINEAR"},{"input":95,"output":96,"interpolation":"LINEAR"},{"input":97,"output":98,"interpolation":"LINEAR"}],"channels":[{"sampler":0,"target":{"node":21,"path":"rotation"}},{"sampler":1,"target":{"node":20,"path":"rotation"}},{"sampler":2,"target":{"node":11,"path":"rotation"}},{"sampler":3,"target":{"node":10,"path":"rotation"}},{"sampler":4,"target":{"node":1,"path":"rotation"}},{"sampler":5,"target":{"node":0,"path":"rotation"}},{"sampler":6,"target":{"node":15,"path":"rotation"}},{"sampler":7,"target":{"node":14,"path":"rotation"}},{"sampler":8,"target":{"node":13,"path":"rotation"}},{"sampler":9,"target":{"node":12,"path":"rotation"}},{"sampler":10,"target":{"node":5,"path":"rotation"}},{"sampler":11,"target":{"node":4,"path":"rotation"}},{"sampler":12,"target":{"node":3,"path":"rotation"}},{"sampler":13,"target":{"node":2,"path":"rotation"}},{"sampler":14,"target":{"node":19,"path":"rotation"}},{"sampler":15,"target":{"node":18,"path":"rotation"}},{"sampler":16,"target":{"node":17,"path":"rotation"}},{"sampler":17,"target":{"node":16,"path":"rotation"}},{"sampler":18,"target":{"node":9,"path":"rotation"}},{"sampler":19,"target":{"node":8,"path":"rotation"}},{"sampler":20,"target":{"node":7,"path":"rotation"}},{"sampler":21,"target":{"node":6,"path":"rotation"}},{"sampler":22,"target":{"node":20,"path":"translation"}}]},{"name":"Run","samplers":[{"input":99,"output":100,"interpolation":"LINEAR"},{"input":101,"output":102,"interpolation":"LINEAR"},{"input":103,"output":104,"interpolation":"LINEAR"},{"input":105,"output":106,"interpolation":"LINEAR"},{"input":107,"output":108,"interpolation":"LINEAR"},{"input":109,"output":110,"interpolation":"LINEAR"},{"input":111,"output":112,"interpolation":"LINEAR"},{"input":113,"output":114,"interpolation":"LINEAR"},{"input":115,"output":116,"interpolation":"LINEAR"},{"input":117,"output":118,"interpolation":"LINEAR"},{"input":119,"output":120,"interpolation":"LINEAR"},{"input":121,"output":122,"interpolation":"LINEAR"},{"input":123,"output":124,"interpolation":"LINEAR"},{"input":125,"output":126,"interpolation":"LINEAR"},{"input":127,"output":128,"interpolation":"LINEAR"},{"input":129,"output":130,"interpolation":"LINEAR"},{"input":131,"output":132,"interpolation":"LINEAR"},{"input":133,"output":134,"interpolation":"LINEAR"},{"input":135,"output":136,"interpolation":"LINEAR"},{"input":137,"output":138,"interpolation":"LINEAR"},{"input":139,"output":140,"interpolation":"LINEAR"},{"input":141,"output":142,"interpolation":"LINEAR"},{"input":143,"output":144,"interpolation":"LINEAR"}],"channels":[{"sampler":0,"target":{"node":21,"path":"rotation"}},{"sampler":1,"target":{"node":20,"path":"rotation"}},{"sampler":2,"target":{"node":11,"path":"rotation"}},{"sampler":3,"target":{"node":10,"path":"rotation"}},{"sampler":4,"target":{"node":1,"path":"rotation"}},{"sampler":5,"target":{"node":0,"path":"rotation"}},{"sampler":6,"target":{"node":15,"path":"rotation"}},{"sampler":7,"target":{"node":14,"path":"rotation"}},{"sampler":8,"target":{"node":13,"path":"rotation"}},{"sampler":9,"target":{"node":12,"path":"rotation"}},{"sampler":10,"target":{"node":5,"path":"rotation"}},{"sampler":11,"target":{"node":4,"path":"rotation"}},{"sampler":12,"target":{"node":3,"path":"rotation"}},{"sampler":13,"target":{"node":2,"path":"rotation"}},{"sampler":14,"target":{"node":19,"path":"rotation"}},{"sampler":15,"target":{"node":18,"path":"rotation"}},{"sampler":16,"target":{"node":17,"path":"rotation"}},{"sampler":17,"target":{"node":16,"path":"rotation"}},{"sampler":18,"target":{"node":9,"path":"rotation"}},{"sampler":19,"target":{"node":8,"path":"rotation"}},{"sampler":20,"target":{"node":7,"path":"rotation"}},{"sampler":21,"target":{"node":6,"path":"rotation"}},{"sampler":22,"target":{"node":20,"path":"translation"}}]}]}